<svg aria-hidden="true" style="width:0;height:0;position:absolute;overflow:hidden" xmlns="http://www.w3.org/2000/svg"><defs><symbol id="mobile-menu-open" viewBox="0 0 32 32"><path d="M6.4 11.733V9.6h19.2v2.133H6.4zm0 5.334h19.2v-2.133H6.4v2.133zm0 5.333h19.2v-2.133H6.4V22.4z"/></symbol><symbol id="close-btn" viewBox="0 0 32 32"><path d="m17.253 16 7.37-7.37a.89.89 0 0 0-1.256-1.252l.001-.001L16 14.747 8.63 7.369a.893.893 0 0 0-1.262 1.262l-.001-.001L14.745 16l-7.376 7.368a.89.89 0 1 0 1.252 1.256l.001-.001 7.376-7.37 7.37 7.37a.89.89 0 0 0 1.254-1.256l.001.001L17.253 16z"/></symbol><symbol id="arrow-up" viewBox="0 0 32 32"><path d="m27.414 12.586-10-10a2 2 0 0 0-2.828 0l-10 10a2 2 0 1 0 2.828 2.828L14 8.828V28a2 2 0 1 0 4 0V8.828l6.586 6.586c.39.39.902.586 1.414.586s1.024-.195 1.414-.586a2 2 0 0 0 0-2.828z"/></symbol><symbol id="btn-arrow" viewBox="0 0 19 32"><path d="M4.422 31.245a2.595 2.595 0 0 1-3.66-3.678l11.595-11.566L.762 4.434A2.595 2.595 0 0 1 4.422.756l13.449 13.415a2.595 2.595 0 0 1-.009 3.669L4.423 31.246z"/></symbol><symbol id="icon-arrow" viewBox="0 0 82 32"><path d="M81.414 17.414a2 2 0 0 0 0-2.828L68.686 1.858a2 2 0 1 0-2.828 2.828L77.172 16 65.858 27.314a2 2 0 1 0 2.828 2.828l12.728-12.728zM0 18h80v-4H0v4z"/></symbol><symbol id="icon-sign" viewBox="0 0 32 32"><path fill="none" stroke-linejoin="round" stroke-linecap="round" stroke-width="5.333" d="M10.667 5.333 23.867 16l-13.2 10.667"/></symbol></defs></svg>